PathFileType	4	(X/Y/Z)	OpenSim_Sub09_CSStiffKnee_Magnet.trc
DataRate	CameraRate	NumFrames	NumMarkers	Units	OrigDataRate	OrigDataStartFrame	OrigNumFrames
100	100	20	8	m	100	4455	7127
Frame#	Time	torso_imu_offset_imu	pelvis_imu_offset_imu	tibia_r_imu_offset_imu	femur_r_imu_offset_imu	tibia_l_imu_offset_imu	femur_l_imu_offset_imu	toes_r_imu_offset_imu	toes_l_imu_offset_imu
				X1	Y1	Z1	X2	Y2	Z2	X3	Y3	Z3	X4	Y4	Z4	X5	Y5	Z5	X6	Y6	Z6	X7	Y7	Z7	X8		Y8	Z8	

4455	44.54000000	-0.89918148	-0.27487906	0.08706262	-0.54389111	0.35133585	-0.69066532	-0.71338014	-0.45733996	-0.20114594	-0.82473488	-0.22439539	-0.05404550	-0.33272521	0.74721264	0.24522519	-0.53950333	0.33935253	0.25320581	-0.66547836	-0.10458633	-0.41282058	-0.84326006	0.01153021	-0.01719334
4456	44.55000000	-0.89946465	-0.27436644	0.09164917	-0.54688533	0.35096846	-0.69317381	-0.69814837	-0.47579919	-0.17953640	-0.83139187	-0.20468868	-0.05244581	-0.31871830	0.74896300	0.24333334	-0.54320472	0.33794158	0.23546145	-0.66642770	-0.11211431	-0.40530137	-0.84026425	0.02782786	0.01488241
4457	44.56000000	-0.90419723	-0.27565591	0.10091354	-0.54723320	0.35523407	-0.69462930	-0.69508339	-0.48941164	-0.16130685	-0.84150522	-0.19563719	-0.04974992	-0.30921081	0.75087953	0.24475694	-0.54951828	0.33697218	0.23247063	-0.66976819	-0.12267726	-0.39736041	-0.84017538	0.03967200	0.03920166
4458	44.57000000	-0.90390010	-0.26802698	0.09807562	-0.54496972	0.34674485	-0.68599217	-0.68386710	-0.50028051	-0.15323686	-0.83924822	-0.18788226	-0.04644865	-0.29650130	0.76036139	0.24105170	-0.55420798	0.33131796	0.22081021	-0.67194512	-0.12814285	-0.38658188	-0.83440546	0.06300044	0.06104838
4459	44.58000000	-0.90267228	-0.26841919	0.10520335	-0.55102445	0.34390496	-0.69109493	-0.67679572	-0.51082446	-0.13943834	-0.83906891	-0.18530948	-0.03455604	-0.27746444	0.76168442	0.24106183	-0.55872416	0.32582067	0.21801918	-0.67274898	-0.13490786	-0.38636091	-0.82853672	0.07355559	0.08986255
4460	44.59000000	-0.90383583	-0.27208102	0.10941971	-0.54939155	0.33970539	-0.69867348	-0.67485442	-0.53161411	-0.12782832	-0.84097706	-0.18727339	-0.03826929	-0.26704906	0.76891368	0.24159747	-0.56112355	0.32382296	0.20974544	-0.67501659	-0.14348438	-0.38655448	-0.82492848	0.08735797	0.11615121
4461	44.60000000	-0.89731535	-0.27326181	0.11037384	-0.54594249	0.33591198	-0.69842023	-0.66254456	-0.53894469	-0.12892282	-0.83515338	-0.20215605	-0.03046660	-0.25472691	0.76928576	0.24205747	-0.56626106	0.31783426	0.20676673	-0.67452013	-0.15124115	-0.37914637	-0.82116888	0.10152019	0.13855798
4462	44.61000000	-0.90150677	-0.26740105	0.11084979	-0.54256543	0.33368520	-0.70201655	-0.65775224	-0.54172975	-0.13848755	-0.83230270	-0.20945831	-0.03057117	-0.24553293	0.77340990	0.24741538	-0.57200411	0.31411872	0.21287319	-0.66782057	-0.16151967	-0.37228311	-0.81553358	0.11054878	0.16217575
4463	44.62000000	-0.89982914	-0.26866814	0.11247757	-0.53841119	0.32383854	-0.70534187	-0.65329262	-0.54377733	-0.13772532	-0.83505456	-0.21759219	-0.02543633	-0.22903245	0.77477739	0.24320101	-0.57344518	0.31134280	0.21138551	-0.66865305	-0.16707281	-0.37509552	-0.80900085	0.12776324	0.17702456
4464	44.63000000	-0.90189551	-0.27089826	0.11281967	-0.54194349	0.31813300	-0.71676277	-0.65676817	-0.55137924	-0.13404199	-0.83085805	-0.22638293	-0.02009203	-0.21918559	0.76960439	0.25161042	-0.58113687	0.30281059	0.21479121	-0.67422791	-0.17250668	-0.37599596	-0.80436500	0.13711821	0.19678815
4465	44.64000000	-0.90035860	-0.26854087	0.11515999	-0.54060964	0.31113337	-0.71550512	-0.64764558	-0.55329009	-0.14349790	-0.82336212	-0.23878641	-0.01556365	-0.20903607	0.76970966	0.26317153	-0.58330167	0.29717566	0.21386138	-0.67199826	-0.17719426	-0.37880446	-0.79964600	0.14660483	0.21802539
4466	44.65000000	-0.89794116	-0.26960670	0.11178836	-0.54379494	0.30344944	-0.71825014	-0.64528224	-0.55726103	-0.14679337	-0.81972855	-0.24351879	-0.01499862	-0.20343988	0.77375632	0.27057999	-0.58608335	0.28201510	0.21912319	-0.66816349	-0.18190976	-0.37009686	-0.78807722	0.15395761	0.23854818
4467	44.66000000	-0.90084096	-0.27053651	0.11347210	-0.53983598	0.29932049	-0.72435066	-0.64336195	-0.56308592	-0.13309579	-0.81986313	-0.25948276	-0.00840848	-0.19132438	0.76670026	0.28391918	-0.59789212	0.28100330	0.22887207	-0.67014027	-0.17968779	-0.37053230	-0.78822033	0.15224280	0.24129537
4468	44.67000000	-0.89856657	-0.26910865	0.11730209	-0.53833593	0.29248615	-0.72842198	-0.64083700	-0.56451998	-0.12211513	-0.81428550	-0.26627172	-0.00990448	-0.17510025	0.76515875	0.29234106	-0.59927146	0.26812693	0.22612450	-0.66839233	-0.17830071	-0.37042612	-0.79146055	0.14189613	0.23867223
4469	44.68000000	-0.90383500	-0.26627353	0.11714192	-0.54135791	0.28211707	-0.73238484	-0.63293301	-0.57318205	-0.12349240	-0.81282071	-0.27253967	-0.00933928	-0.17129472	0.76861664	0.29809467	-0.60539733	0.25137777	0.22875951	-0.67166509	-0.17734694	-0.37295488	-0.79582223	0.13401909	0.23017225
4470	44.69000000	-0.90233707	-0.26793285	0.12017002	-0.54091034	0.27295423	-0.73880326	-0.63191172	-0.58039817	-0.11883253	-0.80777460	-0.28737402	-0.01091099	-0.17660619	0.76846048	0.29283443	-0.60929135	0.25235331	0.24005744	-0.66992749	-0.17544440	-0.37174683	-0.80456865	0.11406324	0.21860268
4471	44.70000000	-0.90121049	-0.26651554	0.12534380	-0.54274647	0.26624901	-0.74283296	-0.63172700	-0.57880284	-0.11653729	-0.80369919	-0.29760707	-0.01344648	-0.18761535	0.77178327	0.28250022	-0.61613065	0.24648813	0.23576297	-0.66794602	-0.18124153	-0.36654170	-0.80773149	0.10075191	0.20551557
4472	44.71000000	-0.89679017	-0.26802853	0.12711591	-0.54104450	0.25995322	-0.74076617	-0.63041410	-0.57989486	-0.12769857	-0.80060889	-0.30445674	-0.00569024	-0.20629281	0.77426674	0.26497385	-0.62062738	0.23988366	0.23919679	-0.66752491	-0.18111423	-0.36531783	-0.81226285	0.08173030	0.18077686
4473	44.72000000	-0.90379885	-0.26446736	0.13486398	-0.54372356	0.25370441	-0.74129113	-0.63182333	-0.58042421	-0.12715113	-0.79393793	-0.31955583	0.00169698	-0.21579581	0.76717452	0.25726722	-0.62196665	0.22525141	0.23975898	-0.66147611	-0.18196890	-0.36730691	-0.81819807	0.06651359	0.15506348
4474	44.73000000	-0.89970601	-0.25774555	0.13698193	-0.54478541	0.24623964	-0.74388214	-0.62526957	-0.58316878	-0.12638200	-0.79028545	-0.33064354	0.00177266	-0.23670463	0.75979565	0.25224557	-0.63410995	0.22266844	0.24352431	-0.65952774	-0.18050506	-0.36737798	-0.82838081	0.05837804	0.11637684
